<?xml version="1.0" encoding="utf-8"?>
<!-- Generator: Adobe Illustrator 26.2.1, SVG Export Plug-In . SVG Version: 6.00 Build 0)  -->
<svg version="1.1" id="Layer_1" xmlns="http://www.w3.org/2000/svg" xmlns:xlink="http://www.w3.org/1999/xlink" x="0px" y="0px"
	 width="200px" height="200px" viewBox="0 0 200 200" style="enable-background:new 0 0 200 200;" xml:space="preserve">
<style type="text/css">
	.st0{fill:#36697F;}
	.st1{fill:#37A5CC;}
	.st2{fill:#7DC6DD;}
	.st3{fill:#FFFFFF;}
</style>
<g id="Products">
</g>
<g id="Products_1_">
</g>
<g id="Products_2_">
</g>
<g id="Products_3_">
</g>
<g id="Products_4_">
</g>
<g id="Products_5_">
</g>
<g id="Products_6_">
</g>
<g id="Products_7_">
</g>
<g>
	<g id="f4610f65-bed3-4813-b859-58bff24280ca_00000145017753464234094010000007686316574295753137_">
		<path id="a6c242a4-082b-436e-8a19-3d7c91a8c883_00000181089278965158161850000013008159578413113781_" class="st0" d="M36.2,0
			l142.6,31.2h15.4V200H32.5c-5.6,0-10.2-4.5-10.2-10.2l0,0v-42.5L35.9,0.5L36.2,0z"/>
		<path id="a231b97d-b560-4df8-b148-745cea8da968_00000174581840142037695720000005863516562639168388_" class="st1" d="M36.2,0h134
			c5.6,0,10.2,4.5,10.2,10.2v130.5l0,0H36.2l0,0V0L36.2,0z"/>
		<polygon id="bd221504-135d-4091-b1cf-5d97db5bd14a_00000143609828092455588160000016584895220235308192_" class="st2" points="
			5.8,159 36.2,140.6 36.2,0 5.8,18.4 		"/>
	</g>
	<g id="b1d3772d-cee8-417e-a251-56a853e47b5a_00000134251971815613673090000004318445359702810525_">
		<path class="st3" d="M95,154.5V184h-7v-19.1l-4.9,19v0h-7l-5.2-19.8V184h-6.3v-29.5h9.3l5.9,23.7l6.2-23.6l0-0.1L95,154.5z"/>
		<path class="st3" d="M116.6,177.6h-8.9l-1.6,6.5h-7.3l8.4-29.5h9.8l8.9,29.5h-7.5L116.6,177.6z M112.1,159.3l-3,12.7h6.1
			L112.1,159.3z"/>
		<path class="st3" d="M155.9,184h-8.3l-5.7-11.1l-5.8,11.1H128l9.3-15.6l-8.4-13.9h8.1l5,9.4h0l5.1-9.4h7.8l-8.4,13.3L155.9,184z"
			/>
	</g>
	<g id="b4ac42dd-1755-46cf-8e31-8f1593ab4882_00000000218368863271821810000015498083402023678900_">
		<path class="st3" d="M76.8,88.2h18.3c0.6,4.7,3.8,9.1,11.6,9.1c6.8,0,11.2-3.2,11.2-10.2v-2.3c0-8.5-8.5-9.9-14-9.9h-6v-13h6
			c5.6,0,11.2-1.8,11.2-8.2V51c0-5.1-3.5-7.7-9.1-7.7c-6.6,0-9.6,4.1-10,9H77.7c0.6-11.9,10.9-22.6,29.4-22.6
			c15.8,0,27.2,8,27.2,19.5v4.2c0,6.6-6.2,12.2-13.9,14c7.7,1.3,16.9,6.6,16.9,16.7v5.2c0,12.6-12.6,21.8-29.6,21.8
			C85.8,111.2,78,99.7,76.8,88.2z"/>
	</g>
</g>
</svg>
