<?xml version="1.0" encoding="utf-8"?>
<!-- Generator: Adobe Illustrator 26.2.1, SVG Export Plug-In . SVG Version: 6.00 Build 0)  -->
<svg version="1.1" id="Layer_1" xmlns="http://www.w3.org/2000/svg" xmlns:xlink="http://www.w3.org/1999/xlink" x="0px" y="0px"
	 width="200px" height="200px" viewBox="0 0 200 200" style="enable-background:new 0 0 200 200;" xml:space="preserve">
<style type="text/css">
	.st0{fill:#36697F;}
	.st1{fill:#37A5CC;}
	.st2{fill:#7DC6DD;}
	.st3{fill:#FFFFFF;}
</style>
<g id="Products">
</g>
<g id="Products_1_">
</g>
<g id="Products_2_">
</g>
<g id="Products_3_">
</g>
<g id="Products_4_">
</g>
<g id="Products_5_">
</g>
<g id="Products_6_">
</g>
<g id="Products_7_">
</g>
<g>
	<g id="b82a632e-4888-4760-a119-707431a1add2_00000081621314467290734040000015777175339399098776_">
		<path id="aafa4d6f-b327-4d41-89f7-193601ba9ff9_00000006690247175162169330000012186452929725522053_" class="st0" d="M36.7,0.4
			l142.6,31.2h15.4v168.8H33c-5.6,0-10.2-4.5-10.2-10.2l0,0v-42.5L36.4,0.8L36.7,0.4z"/>
		<path id="e62b8b6d-a2d5-42f5-95e3-82be612e200d_00000176752708784491145150000001557435513232106422_" class="st1" d="M36.7,0.3
			h134c5.6,0,10.2,4.5,10.2,10.2V141l0,0H36.7l0,0V0.3L36.7,0.3z"/>
		<polygon id="b696bc37-b8aa-4354-bbfa-d3faf3be85c0_00000058585645372824078400000002652852290555067782_" class="st2" points="
			6.3,159.3 36.7,141 36.7,0.3 6.3,18.7 		"/>
	</g>
	<g id="a0880521-7399-45a5-9c9f-e67267c4ec84_00000167355256641352013530000007883680798711770251_">
		<path class="st3" d="M89.1,177.9h-8.9l-1.6,6.5h-7.3l8.4-29.5h9.8l8.9,29.5h-7.5L89.1,177.9z M84.6,159.7l-3,12.7h6.1L84.6,159.7z
			"/>
		<path class="st3" d="M112.4,172.6v11.8H105v-11.7l-9.3-17.8h7.8l5.4,12.4l5.4-12.4h7.5L112.4,172.6z"/>
		<path class="st3" d="M137,177.9h-8.9l-1.6,6.5h-7.3l8.4-29.5h9.8l8.9,29.5h-7.5L137,177.9z M132.5,159.7l-3,12.7h6.1L132.5,159.7z
			"/>
	</g>
	<g id="e31ea7dd-e699-418c-8488-ea7f2ad8fb14_00000183951983403743839530000001433476051082569116_">
		<path class="st3" d="M149,31.8v77.9h-18.5V59.4l-13,50.2v0.1H99.1L85.3,57.4v52.3H68.6V31.8h24.5l15.7,62.6L125.3,32l-0.1-0.2
			L149,31.8z"/>
	</g>
</g>
</svg>
